<svg width="14" height="12" viewBox="0 0 14 12" fill="none" xmlns="http://www.w3.org/2000/svg">
<path d="M14.0001 5.99994C13.9952 5.47384 13.7832 4.97084 13.4101 4.59994L9.12006 0.299948C8.9327 0.113697 8.67925 0.00915527 8.41506 0.00915527C8.15088 0.00915527 7.89742 0.113697 7.71006 0.299948C7.61633 0.392911 7.54194 0.503512 7.49117 0.625371C7.4404 0.74723 7.41426 0.877935 7.41426 1.00995C7.41426 1.14196 7.4404 1.27266 7.49117 1.39452C7.54194 1.51638 7.61633 1.62698 7.71006 1.71995L11.0001 4.99994H1.00006C0.734845 4.99994 0.480491 5.1053 0.292954 5.29284C0.105418 5.48037 6.10352e-05 5.73472 6.10352e-05 5.99994C6.10352e-05 6.26516 0.105418 6.51951 0.292954 6.70705C0.480491 6.89458 0.734845 6.99994 1.00006 6.99994H11.0001L7.71006 10.2899C7.52176 10.4769 7.41544 10.731 7.41451 10.9964C7.41357 11.2618 7.51808 11.5166 7.70506 11.7049C7.89204 11.8932 8.14616 11.9996 8.41153 12.0005C8.67689 12.0014 8.93176 11.8969 9.12006 11.7099L13.4101 7.40994C13.7856 7.03659 13.9978 6.52952 14.0001 5.99994Z" fill="white"/>
</svg>
