<svg width="14" height="12" viewBox="0 0 14 12" fill="none" xmlns="http://www.w3.org/2000/svg">
<path d="M14.0001 6.00006C13.9952 5.47396 13.7832 4.97096 13.4101 4.60007L9.12008 0.30007C8.93271 0.113819 8.67926 0.00927734 8.41508 0.00927734C8.15089 0.00927734 7.89744 0.113819 7.71008 0.30007C7.61635 0.393033 7.54195 0.503634 7.49119 0.625493C7.44042 0.747352 7.41428 0.878057 7.41428 1.01007C7.41428 1.14208 7.44042 1.27279 7.49119 1.39465C7.54195 1.5165 7.61635 1.62711 7.71008 1.72007L11.0001 5.00006H1.00008C0.73486 5.00006 0.480506 5.10542 0.29297 5.29296C0.105433 5.48049 7.62939e-05 5.73485 7.62939e-05 6.00006C7.62939e-05 6.26528 0.105433 6.51963 0.29297 6.70717C0.480506 6.89471 0.73486 7.00006 1.00008 7.00006H11.0001L7.71008 10.2901C7.52177 10.477 7.41546 10.7312 7.41452 10.9965C7.41358 11.2619 7.5181 11.5168 7.70508 11.7051C7.89205 11.8934 8.14618 11.9997 8.41154 12.0006C8.6769 12.0016 8.93177 11.897 9.12008 11.7101L13.4101 7.41006C13.7857 7.03671 13.9978 6.52964 14.0001 6.00006Z" fill="black"/>
</svg>
